<?xml version="1.0" encoding="utf-8"?>
<!DOCTYPE svg PUBLIC "-//W3C//DTD SVG 1.0//EN" "http://www.w3.org/TR/2001/REC-SVG-20010904/DTD/svg10.dtd">
<svg version="1.0" xmlns="http://www.w3.org/2000/svg" width="273px" height="287px" viewBox="0 0 273 287" preserveAspectRatio="xMidYMid meet">
 <g fill="#000000">
  <path d="M54 239.7 l0 -38.7 -12.1 0 -12.1 0 -7.9 -7.2 -7.8 -7.3 -0.1 -76 0 -76 7.8 -7.8 7.7 -7.7 107 0 107 0 7.8 7.8 7.7 7.7 0 75.5 0 75.5 -7.8 7.8 -7.7 7.7 -54.5 0 -54.5 0.1 -21.5 20.6 c-11.8 11.3 -26 24.9 -31.5 30.2 -5.5 5.2 -13.9 13.3 -18.7 18 l-8.8 8.5 0 -38.7z m127.7 -56.7 l55.2 0 2 -2.6 c2.1 -2.6 2.1 -3.4 2.1 -70.4 0 -63.1 -0.1 -67.9 -1.8 -69.9 l-1.7 -2.2 -100.8 0 c-94.9 -0.1 -100.9 0 -102.8 1.7 -1.8 1.7 -1.9 3.7 -1.9 70.7 0 62.8 0.1 69.2 1.7 70.9 1.4 1.6 3.5 1.8 20 1.8 l18.3 0 0 27.2 0 27.3 27.3 -27.3 27.2 -27.2 55.2 0z"/>
  <path d="M75.2 158.7 c-2.1 -2.2 -2.2 -3.2 -2.2 -20.9 0 -24.2 -1.1 -22.7 17.4 -22.9 12.4 -0.1 14.1 0.1 15.3 1.7 1 1.3 1.3 6.8 1.3 21.1 0 24.7 1 23.3 -16.8 23.3 -12.1 0 -13 -0.1 -15 -2.3z"/>
  <path d="M119 159 c-1.9 -1.9 -2 -3.3 -2 -35.4 0 -40.2 -1.6 -36.6 16 -36.6 17.6 0 16 -3.6 16 36.9 0 31.5 -0.1 33.9 -1.8 35.4 -1.5 1.4 -4.1 1.7 -14 1.7 -10.9 0 -12.4 -0.2 -14.2 -2z"/>
  <path d="M162.7 159.2 c-1.5 -1.7 -1.7 -6.5 -1.7 -49.1 0 -30.6 0.4 -47.9 1 -49.2 1 -1.7 2.2 -1.9 14.4 -1.9 11.6 0 13.5 0.2 14.9 1.8 1.5 1.7 1.7 6.6 1.7 49.4 0 44.7 -0.1 47.6 -1.8 49.1 -1.5 1.4 -4.1 1.7 -14.4 1.7 -10.8 0 -12.7 -0.2 -14.1 -1.8z"/>
 </g>
</svg>
