<svg width="117" height="40" viewBox="0 0 117 40" fill="none" xmlns="http://www.w3.org/2000/svg">
<path d="M13 15C13.5523 15 14 15.4477 14 16V21C14 21.5523 13.5523 22 13 22H10C9.44772 22 9 21.5523 9 21V16C9 15.4477 9.44772 15 10 15H13Z" fill="black"/>
<path d="M20 10C20.5523 10 21 10.4477 21 11V21C21 21.5523 20.5523 22 20 22H17C16.4477 22 16 21.5523 16 21V11C16 10.4477 16.4477 10 17 10H20Z" fill="black"/>
<path d="M27 6C27.5523 6 28 6.44772 28 7V21C28 21.5523 27.5523 22 27 22H24C23.4477 22 23 21.5523 23 21V7C23 6.44772 23.4477 6 24 6H27Z" fill="black"/>
<path fill-rule="evenodd" clip-rule="evenodd" d="M38 2V26L36 28H18.5L6 40V28H2L0 26V2L2 0H36L38 2ZM3 25H9V33.5L17.5 25H35V3H3V25Z" fill="black"/>
<path d="M50 14H54V8H58V24H54V17H50V24H46V8H50V14Z" fill="black"/>
<path d="M72 11H65V14H71V17H65V21H72V24H61V8H72V11Z" fill="black"/>
<path fill-rule="evenodd" clip-rule="evenodd" d="M88 24H84L83 20H78L77 24H73L78 8H83L88 24ZM79 17H82L80.5 11L79 17Z" fill="black"/>
<path fill-rule="evenodd" clip-rule="evenodd" d="M102 11V16.5L99.5 19L102 24H98L96 19H94V24H90V8H99.5L102 11ZM94 16H97.5C98.0523 16 98.5 15.5523 98.5 15V12C98.5 11.4477 98.0523 11 97.5 11H94V16Z" fill="black"/>
<path fill-rule="evenodd" clip-rule="evenodd" d="M117 11V21L114 24H105V8H114L117 11ZM109 21H111.5C112.605 21 113.5 20.1046 113.5 19V13C113.5 11.8954 112.605 11 111.5 11H109V21Z" fill="black"/>
</svg>
